<svg xmlns="http://www.w3.org/2000/svg" xmlns:xlink="http://www.w3.org/1999/xlink" width="500" zoomAndPan="magnify" viewBox="0 0 375 374.999991" height="500" preserveAspectRatio="xMidYMid meet" version="1.0"><defs><g/></defs><g fill="#000000" fill-opacity="1"><g transform="translate(10.75368, 179.061763)"><g><path d="M 23.429688 0 C 36.898438 0 46.285156 -9.703125 46.285156 -23.492188 C 46.285156 -37.539062 36.644531 -47.242188 22.789062 -47.242188 L 4.914062 -47.242188 L 4.914062 0 Z M 21.769531 -37.664062 C 30.324219 -37.664062 35.367188 -32.429688 35.367188 -23.492188 C 35.367188 -14.746094 30.578125 -9.574219 22.40625 -9.574219 L 15.257812 -9.574219 L 15.257812 -37.664062 Z M 21.769531 -37.664062 "/></g></g></g><g fill="#000000" fill-opacity="1"><g transform="translate(59.331296, 179.061763)"><g><path d="M 15.257812 -47.242188 L 4.914062 -47.242188 L 4.914062 0 L 15.257812 0 Z M 15.257812 -47.242188 "/></g></g></g><g fill="#000000" fill-opacity="1"><g transform="translate(79.502813, 179.061763)"><g><path d="M 18.320312 0 L 28.984375 0 L 46.347656 -47.242188 L 35.558594 -47.242188 L 26.75 -23.363281 C 25.726562 -20.554688 24.832031 -17.9375 23.621094 -13.40625 C 22.597656 -17.492188 21.707031 -20.429688 20.621094 -23.363281 L 11.683594 -47.242188 L 0.636719 -47.242188 Z M 18.320312 0 "/></g></g></g><g fill="#000000" fill-opacity="1"><g transform="translate(126.484588, 179.061763)"><g><path d="M 48.582031 -23.683594 C 48.582031 -38.113281 39.132812 -48.070312 25.40625 -48.070312 C 11.746094 -48.070312 2.296875 -38.046875 2.296875 -23.621094 C 2.296875 -9.191406 11.683594 0.765625 25.34375 0.765625 C 39.070312 0.765625 48.582031 -9.257812 48.582031 -23.683594 Z M 37.664062 -23.683594 C 37.664062 -14.746094 33.070312 -9.191406 25.472656 -9.191406 C 17.8125 -9.191406 13.214844 -14.621094 13.214844 -23.683594 C 13.214844 -32.6875 17.8125 -38.113281 25.472656 -38.113281 C 33.070312 -38.113281 37.664062 -32.6875 37.664062 -23.683594 Z M 37.664062 -23.683594 "/></g></g></g><g fill="#000000" fill-opacity="1"><g transform="translate(177.3602, 179.061763)"><g><path d="M 15.257812 0 L 15.257812 -16.535156 L 23.238281 -16.535156 L 30.324219 0 L 41.625 0 L 33.324219 -18.769531 C 38.558594 -21.449219 41.175781 -25.792969 41.175781 -31.917969 C 41.175781 -41.6875 34.664062 -47.242188 23.171875 -47.242188 L 4.914062 -47.242188 L 4.914062 0 Z M 15.257812 -38.046875 L 23.171875 -38.046875 C 27.769531 -38.046875 30.261719 -35.878906 30.261719 -31.917969 C 30.261719 -27.898438 27.640625 -25.597656 23.109375 -25.597656 L 15.257812 -25.597656 Z M 15.257812 -38.046875 "/></g></g></g><g fill="#000000" fill-opacity="1"><g transform="translate(221.277937, 179.061763)"><g><path d="M 25.34375 0.765625 C 37.15625 0.765625 45.964844 -6.191406 47.625 -16.726562 L 36.898438 -16.726562 C 35.621094 -12.066406 31.34375 -9.191406 25.535156 -9.191406 C 17.9375 -9.191406 13.214844 -14.746094 13.214844 -23.621094 C 13.214844 -32.621094 17.875 -38.046875 25.535156 -38.046875 C 31.21875 -38.046875 35.238281 -35.367188 36.644531 -30.644531 L 47.558594 -30.644531 C 46.09375 -41.238281 37.601562 -48.007812 25.792969 -48.007812 C 11.683594 -48.007812 2.296875 -38.304688 2.296875 -23.558594 C 2.296875 -8.617188 11.171875 0.765625 25.34375 0.765625 Z M 25.34375 0.765625 "/></g></g></g><g fill="#000000" fill-opacity="1"><g transform="translate(270.876884, 179.061763)"><g><path d="M 34.921875 0 L 34.921875 -9.574219 L 15.257812 -9.574219 L 15.257812 -19.34375 L 32.6875 -19.34375 L 32.6875 -28.410156 L 15.257812 -28.410156 L 15.257812 -37.664062 L 34.921875 -37.664062 L 34.921875 -47.242188 L 4.914062 -47.242188 L 4.914062 0 Z M 34.921875 0 "/></g></g></g><g fill="#000000" fill-opacity="1"><g transform="translate(138.529258, 240.852984)"><g><path d="M 31.855469 -18.449219 L 31.855469 -27.769531 L 15.257812 -27.769531 L 15.257812 -37.664062 L 34.984375 -37.664062 L 34.984375 -47.242188 L 4.914062 -47.242188 L 4.914062 0 L 15.257812 0 L 15.257812 -18.449219 Z M 31.855469 -18.449219 "/></g></g></g><g fill="#000000" fill-opacity="1"><g transform="translate(175.680608, 240.852984)"><g><path d="M 11.363281 0 L 14.746094 -9.957031 L 30.003906 -9.957031 L 33.324219 0 L 44.304688 0 L 27.515625 -47.242188 L 17.429688 -47.242188 L 0.574219 0 Z M 21.128906 -28.726562 C 21.707031 -30.453125 22.214844 -32.238281 22.40625 -33.324219 C 22.597656 -32.175781 23.171875 -30.324219 23.683594 -28.726562 L 27.066406 -18.640625 L 17.746094 -18.640625 Z M 21.128906 -28.726562 "/></g></g></g><g fill="#000000" fill-opacity="1"><g transform="translate(220.555831, 240.852984)"><g><path d="M 25.34375 0.765625 C 37.15625 0.765625 45.964844 -6.191406 47.625 -16.726562 L 36.898438 -16.726562 C 35.621094 -12.066406 31.34375 -9.191406 25.535156 -9.191406 C 17.9375 -9.191406 13.214844 -14.746094 13.214844 -23.621094 C 13.214844 -32.621094 17.875 -38.046875 25.535156 -38.046875 C 31.21875 -38.046875 35.238281 -35.367188 36.644531 -30.644531 L 47.558594 -30.644531 C 46.09375 -41.238281 37.601562 -48.007812 25.792969 -48.007812 C 11.683594 -48.007812 2.296875 -38.304688 2.296875 -23.558594 C 2.296875 -8.617188 11.171875 0.765625 25.34375 0.765625 Z M 25.34375 0.765625 "/></g></g></g><g fill="#000000" fill-opacity="1"><g transform="translate(270.154779, 240.852984)"><g><path d="M 15.257812 -47.242188 L 4.914062 -47.242188 L 4.914062 0 L 15.257812 0 Z M 15.257812 -47.242188 "/></g></g></g><g fill="#000000" fill-opacity="1"><g transform="translate(290.326295, 240.852984)"><g><path d="M 15.257812 -47.242188 L 4.914062 -47.242188 L 4.914062 0 L 33.898438 0 L 33.898438 -9.574219 L 15.257812 -9.574219 Z M 15.257812 -47.242188 "/></g></g></g><g fill="#000000" fill-opacity="1"><g transform="translate(325.817959, 240.852984)"><g><path d="M 34.921875 0 L 34.921875 -9.574219 L 15.257812 -9.574219 L 15.257812 -19.34375 L 32.6875 -19.34375 L 32.6875 -28.410156 L 15.257812 -28.410156 L 15.257812 -37.664062 L 34.921875 -37.664062 L 34.921875 -47.242188 L 4.914062 -47.242188 L 4.914062 0 Z M 34.921875 0 "/></g></g></g></svg>